<svg width="1240" height="1240" viewBox="0 0 1240 1240" fill="none" xmlns="http://www.w3.org/2000/svg">
<rect width="1240" height="1240" fill="white"/>
<path d="M174.049 872C172.255 872 170.667 871.448 169.287 870.344C167.976 869.171 167.148 867.721 166.803 865.996L154.588 799.125C154.519 798.78 154.484 798.435 154.484 798.09C154.484 796.986 154.898 795.951 155.727 794.984C156.693 793.742 157.969 793.121 159.557 793.121H166.803C168.528 793.121 170.046 793.708 171.357 794.881C172.669 795.985 173.462 797.434 173.738 799.229L177.879 829.041L180.984 853.885C181.053 854.023 181.157 854.092 181.295 854.092C181.433 854.092 181.502 854.023 181.502 853.885C182.882 846.018 184.435 837.736 186.16 829.041L192.889 799.125C193.234 797.4 194.096 795.985 195.477 794.881C196.926 793.708 198.548 793.121 200.342 793.121H203.965C205.759 793.121 207.346 793.673 208.727 794.777C210.176 795.882 211.073 797.331 211.418 799.125L218.354 829.041C218.975 832.077 219.768 836.46 220.734 842.188C221.77 847.846 222.494 851.711 222.908 853.781C222.908 853.988 222.977 854.092 223.115 854.092C223.322 854.092 223.426 853.988 223.426 853.781C223.84 850.607 224.392 846.19 225.082 840.531C225.772 834.803 226.221 830.973 226.428 829.041L230.672 799.229C230.879 797.434 231.638 795.985 232.949 794.881C234.329 793.708 235.882 793.121 237.607 793.121H243.404C244.992 793.121 246.303 793.742 247.338 794.984C248.166 795.951 248.58 797.02 248.58 798.193C248.58 798.469 248.546 798.78 248.477 799.125L236.883 865.996C236.607 867.721 235.779 869.171 234.398 870.344C233.087 871.448 231.535 872 229.74 872H218.146C216.352 872 214.765 871.448 213.385 870.344C212.005 869.171 211.142 867.721 210.797 865.996L204.896 837.633C203.654 831.629 202.654 825.625 201.895 819.621C201.826 819.414 201.688 819.311 201.48 819.311C201.342 819.311 201.273 819.414 201.273 819.621C199.755 828.938 198.72 834.941 198.168 837.633L192.578 865.996C192.164 867.721 191.267 869.171 189.887 870.344C188.576 871.448 187.023 872 185.229 872H174.049ZM316.851 862.373C310.226 869.757 301.461 873.449 290.558 873.449C279.723 873.449 270.993 869.757 264.368 862.373C257.743 854.989 254.431 844.913 254.431 832.146C254.431 819.449 257.709 809.546 264.265 802.438C270.89 795.26 279.654 791.672 290.558 791.672C301.53 791.672 310.295 795.26 316.851 802.438C323.476 809.546 326.788 819.449 326.788 832.146C326.788 844.913 323.476 854.989 316.851 862.373ZM278.343 850.469C281.31 854.954 285.382 857.197 290.558 857.197C295.803 857.197 299.909 854.954 302.876 850.469C305.913 845.914 307.431 839.807 307.431 832.146C307.431 824.555 305.913 818.62 302.876 814.342C299.909 809.994 295.803 807.82 290.558 807.82C285.382 807.82 281.31 809.994 278.343 814.342C275.375 818.62 273.892 824.555 273.892 832.146C273.892 839.876 275.375 845.983 278.343 850.469ZM358.932 808.131C358.38 808.131 358.104 808.372 358.104 808.855V828.523C358.104 829.007 358.38 829.248 358.932 829.248H366.592C371.147 829.248 374.563 828.316 376.84 826.453C379.186 824.521 380.36 821.691 380.36 817.965C380.36 814.376 379.221 811.857 376.944 810.408C374.735 808.89 371.285 808.131 366.592 808.131H358.932ZM400.028 866.721C400.304 867.273 400.442 867.859 400.442 868.48C400.442 869.033 400.269 869.619 399.924 870.24C399.234 871.413 398.233 872 396.922 872H387.916C386.053 872 384.293 871.517 382.637 870.551C381.05 869.585 379.808 868.273 378.91 866.617L367.627 844.879C367.351 844.465 366.972 844.258 366.489 844.258H358.932C358.38 844.258 358.104 844.499 358.104 844.982V865.893C358.104 867.549 357.517 868.998 356.344 870.24C355.171 871.413 353.722 872 351.996 872H345.268C343.612 872 342.162 871.413 340.92 870.24C339.747 868.998 339.16 867.549 339.16 865.893V799.229C339.16 797.572 339.747 796.158 340.92 794.984C342.162 793.742 343.612 793.121 345.268 793.121H368.145C388.71 793.121 398.992 801.402 398.992 817.965C398.992 828.592 394.679 836.08 386.053 840.428C385.639 840.635 385.535 840.945 385.742 841.359L400.028 866.721ZM418.093 872C416.437 872 414.988 871.413 413.745 870.24C412.572 868.998 411.986 867.549 411.986 865.893V799.229C411.986 797.572 412.572 796.158 413.745 794.984C414.988 793.742 416.437 793.121 418.093 793.121H424.822C426.547 793.121 427.996 793.742 429.169 794.984C430.342 796.158 430.929 797.572 430.929 799.229V824.176C430.929 824.245 430.964 824.279 431.033 824.279C431.171 824.279 431.274 824.245 431.343 824.176L450.079 798.09C452.426 794.777 455.635 793.121 459.706 793.121H468.298C469.54 793.121 470.472 793.673 471.093 794.777C471.3 795.26 471.404 795.743 471.404 796.227C471.404 796.848 471.197 797.434 470.783 797.986L451.011 824.072C450.735 824.486 450.735 824.935 451.011 825.418L475.751 866.721C476.096 867.342 476.269 867.963 476.269 868.584C476.269 869.136 476.096 869.688 475.751 870.24C475.13 871.413 474.13 872 472.749 872H464.261C462.329 872 460.535 871.551 458.878 870.654C457.291 869.688 456.014 868.377 455.048 866.721L439.935 840.324C439.866 840.186 439.728 840.117 439.521 840.117C439.314 840.117 439.176 840.186 439.107 840.324L431.447 850.676C431.102 851.09 430.929 851.573 430.929 852.125V865.893C430.929 867.549 430.342 868.998 429.169 870.24C427.996 871.413 426.547 872 424.822 872H418.093ZM535.124 872C533.467 872 532.018 871.413 530.776 870.24C529.603 868.998 529.016 867.549 529.016 865.893V799.229C529.016 797.572 529.603 796.158 530.776 794.984C532.018 793.742 533.467 793.121 535.124 793.121H572.907C574.632 793.121 576.081 793.742 577.255 794.984C578.428 796.158 579.014 797.572 579.014 799.229V802.748C579.014 804.404 578.428 805.854 577.255 807.096C576.081 808.269 574.632 808.855 572.907 808.855H548.788C548.236 808.855 547.96 809.097 547.96 809.58V822.727C547.96 823.21 548.236 823.451 548.788 823.451H568.249C569.974 823.451 571.423 824.072 572.596 825.314C573.77 826.488 574.356 827.902 574.356 829.559V833.285C574.356 834.941 573.77 836.391 572.596 837.633C571.423 838.806 569.974 839.393 568.249 839.393H548.788C548.236 839.393 547.96 839.634 547.96 840.117V855.334C547.96 855.817 548.236 856.059 548.788 856.059H574.149C575.805 856.059 577.22 856.68 578.393 857.922C579.635 859.095 580.257 860.51 580.257 862.166V865.893C580.257 867.549 579.635 868.998 578.393 870.24C577.22 871.413 575.805 872 574.149 872H535.124ZM591.904 872C590.524 872 589.489 871.413 588.799 870.24C588.454 869.619 588.281 868.998 588.281 868.377C588.281 867.756 588.419 867.169 588.695 866.617L607.224 832.043C607.431 831.629 607.431 831.18 607.224 830.697L589.937 798.504C589.661 797.952 589.523 797.365 589.523 796.744C589.523 796.123 589.696 795.502 590.041 794.881C590.8 793.708 591.87 793.121 593.25 793.121H602.049C603.912 793.121 605.637 793.639 607.224 794.674C608.812 795.64 609.985 796.986 610.744 798.711L614.574 807.199C615.609 809.477 617.473 813.721 620.164 819.932C620.233 820.07 620.336 820.139 620.474 820.139C620.612 820.139 620.716 820.07 620.785 819.932C622.234 815.929 623.89 811.685 625.754 807.199L629.17 798.814C629.86 797.089 630.964 795.709 632.482 794.674C634.07 793.639 635.795 793.121 637.658 793.121H645.422C646.802 793.121 647.872 793.708 648.631 794.881C648.976 795.502 649.148 796.158 649.148 796.848C649.148 797.4 649.01 797.952 648.734 798.504L631.551 831.525C631.344 832.008 631.344 832.492 631.551 832.975L649.976 866.617C650.321 867.238 650.494 867.825 650.494 868.377C650.494 868.998 650.321 869.619 649.976 870.24C649.217 871.413 648.148 872 646.767 872H637.969C636.105 872 634.38 871.517 632.793 870.551C631.206 869.516 629.998 868.17 629.17 866.514L624.512 856.68C623.2 853.781 621.303 849.434 618.818 843.637C618.749 843.568 618.646 843.533 618.508 843.533C618.37 843.533 618.266 843.568 618.197 843.637C616.334 848.398 614.54 852.746 612.814 856.68L608.57 866.41C607.811 868.135 606.638 869.516 605.051 870.551C603.532 871.517 601.842 872 599.978 872H591.904ZM691.333 873.449C686.226 873.449 681.464 872.587 677.048 870.861C672.631 869.136 668.698 866.617 665.247 863.305C661.866 859.992 659.174 855.748 657.173 850.572C655.241 845.327 654.274 839.462 654.274 832.975C654.274 826.626 655.275 820.829 657.276 815.584C659.347 810.27 662.107 805.888 665.558 802.438C669.077 798.987 673.08 796.33 677.565 794.467C682.12 792.604 686.916 791.672 691.954 791.672C698.924 791.672 705.342 793.777 711.208 797.986C712.726 799.021 713.485 800.54 713.485 802.541C713.485 804.059 713.002 805.439 712.036 806.682L709.759 809.27C708.793 810.512 707.447 811.236 705.722 811.443C705.446 811.443 705.204 811.443 704.997 811.443C703.548 811.443 702.237 811.064 701.063 810.305C698.303 808.648 695.37 807.82 692.265 807.82C687.02 807.82 682.603 810.063 679.015 814.549C675.495 818.965 673.735 824.9 673.735 832.354C673.735 840.152 675.357 846.259 678.601 850.676C681.913 855.023 686.399 857.197 692.058 857.197C695.715 857.197 699.2 856.093 702.513 853.885C703.686 853.057 705.032 852.643 706.55 852.643C706.688 852.643 706.826 852.643 706.964 852.643C708.62 852.781 709.966 853.436 711.001 854.609L713.175 857.197C714.21 858.439 714.728 859.889 714.728 861.545C714.728 863.408 714.037 864.926 712.657 866.1C706.653 870.999 699.545 873.449 691.333 873.449ZM732.586 872C730.93 872 729.481 871.413 728.238 870.24C727.065 868.998 726.479 867.549 726.479 865.893V799.229C726.479 797.572 727.065 796.158 728.238 794.984C729.481 793.742 730.93 793.121 732.586 793.121H739.315C741.04 793.121 742.489 793.742 743.662 794.984C744.835 796.158 745.422 797.572 745.422 799.229V822.312C745.422 822.865 745.698 823.141 746.25 823.141H770.68C771.163 823.141 771.404 822.865 771.404 822.312V799.229C771.404 797.572 771.991 796.158 773.164 794.984C774.406 793.742 775.856 793.121 777.512 793.121H784.033C785.759 793.121 787.208 793.742 788.381 794.984C789.554 796.158 790.141 797.572 790.141 799.229V865.893C790.141 867.549 789.554 868.998 788.381 870.24C787.208 871.413 785.759 872 784.033 872H777.512C775.856 872 774.406 871.413 773.164 870.24C771.991 868.998 771.404 867.549 771.404 865.893V840.324C771.404 839.841 771.163 839.6 770.68 839.6H746.25C745.698 839.6 745.422 839.841 745.422 840.324V865.893C745.422 867.549 744.835 868.998 743.662 870.24C742.489 871.413 741.04 872 739.315 872H732.586ZM824.044 838.461C823.975 838.668 824.01 838.875 824.148 839.082C824.286 839.22 824.458 839.289 824.665 839.289H839.157C839.364 839.289 839.537 839.22 839.675 839.082C839.813 838.875 839.848 838.668 839.779 838.461L838.226 832.561C837.536 829.8 836.501 825.556 835.12 819.828C833.74 814.031 832.739 809.891 832.118 807.406C832.049 807.268 831.946 807.199 831.808 807.199C831.67 807.199 831.601 807.268 831.601 807.406C828.84 819.138 826.839 827.523 825.597 832.561L824.044 838.461ZM854.271 872C852.476 872 850.855 871.448 849.405 870.344C848.025 869.24 847.094 867.825 846.611 866.1L843.816 854.609C843.678 854.126 843.333 853.885 842.78 853.885H821.042C820.49 853.885 820.18 854.126 820.111 854.609L817.212 866.1C816.729 867.825 815.763 869.24 814.314 870.344C812.933 871.448 811.346 872 809.552 872H802.513C800.995 872 799.787 871.379 798.89 870.137C798.269 869.378 797.958 868.515 797.958 867.549C797.958 867.135 798.027 866.686 798.165 866.203L819.075 798.918C819.627 797.193 820.628 795.812 822.077 794.777C823.527 793.673 825.183 793.121 827.046 793.121H837.501C839.295 793.121 840.917 793.673 842.366 794.777C843.816 795.812 844.816 797.193 845.368 798.918L866.279 866.203C866.417 866.686 866.486 867.135 866.486 867.549C866.486 868.515 866.175 869.378 865.554 870.137C864.657 871.379 863.449 872 861.931 872H854.271ZM880.203 872C878.547 872 877.098 871.413 875.856 870.24C874.683 868.998 874.096 867.549 874.096 865.893V799.229C874.096 797.572 874.683 796.158 875.856 794.984C877.098 793.742 878.547 793.121 880.203 793.121H887.242C889.175 793.121 890.935 793.604 892.522 794.57C894.109 795.536 895.351 796.848 896.248 798.504L913.018 830.904L920.678 848.088C920.747 848.295 920.851 848.398 920.989 848.398C921.196 848.398 921.265 848.295 921.196 848.088C919.539 834.907 918.711 825.28 918.711 819.207V799.229C918.711 797.572 919.298 796.158 920.471 794.984C921.713 793.742 923.162 793.121 924.819 793.121H930.616C932.341 793.121 933.79 793.742 934.963 794.984C936.136 796.158 936.723 797.572 936.723 799.229V865.893C936.723 867.549 936.136 868.998 934.963 870.24C933.79 871.413 932.341 872 930.616 872H923.576C921.713 872 919.953 871.517 918.297 870.551C916.71 869.585 915.502 868.239 914.674 866.514L897.905 833.906L890.348 816.93C890.279 816.723 890.141 816.619 889.934 816.619C889.796 816.619 889.727 816.723 889.727 816.93C889.796 818.034 890.072 820.863 890.555 825.418C891.107 829.973 891.487 833.803 891.694 836.908C891.97 840.014 892.108 842.981 892.108 845.811V865.893C892.108 867.549 891.521 868.998 890.348 870.24C889.175 871.413 887.726 872 886 872H880.203ZM988.431 873.449C982.91 873.449 977.769 872.587 973.007 870.861C968.315 869.136 964.174 866.617 960.585 863.305C957.066 859.992 954.305 855.748 952.304 850.572C950.303 845.396 949.302 839.531 949.302 832.975C949.302 826.557 950.337 820.725 952.408 815.48C954.478 810.236 957.273 805.888 960.792 802.438C964.381 798.987 968.487 796.33 973.111 794.467C977.803 792.604 982.807 791.672 988.121 791.672C995.85 791.672 1002.72 793.777 1008.72 797.986C1010.24 799.09 1011 800.609 1011 802.541C1011 804.059 1010.48 805.405 1009.44 806.578L1007.17 809.373C1006.13 810.546 1004.79 811.236 1003.13 811.443C1002.85 811.443 1002.58 811.443 1002.3 811.443C1000.92 811.443 999.645 811.064 998.472 810.305C995.574 808.648 992.33 807.82 988.742 807.82C982.807 807.82 977.976 810.029 974.249 814.445C970.592 818.862 968.763 824.831 968.763 832.354C968.763 840.359 970.557 846.501 974.146 850.779C977.734 855.058 983.152 857.197 990.398 857.197C993.158 857.197 995.436 856.645 997.23 855.541C997.644 855.334 997.851 854.954 997.851 854.402V843.223C997.851 842.671 997.609 842.395 997.126 842.395H991.433C989.777 842.395 988.328 841.808 987.085 840.635C985.912 839.462 985.326 838.012 985.326 836.287V833.078C985.326 831.353 985.912 829.904 987.085 828.73C988.328 827.557 989.777 826.971 991.433 826.971H1008.62C1010.27 826.971 1011.69 827.557 1012.86 828.73C1014.1 829.904 1014.72 831.353 1014.72 833.078V857.715C1014.72 862.27 1013.1 865.548 1009.86 867.549C1003.51 871.482 996.367 873.449 988.431 873.449ZM1034.55 872C1032.89 872 1031.44 871.413 1030.2 870.24C1029.03 868.998 1028.44 867.549 1028.44 865.893V799.229C1028.44 797.572 1029.03 796.158 1030.2 794.984C1031.44 793.742 1032.89 793.121 1034.55 793.121H1072.33C1074.06 793.121 1075.51 793.742 1076.68 794.984C1077.85 796.158 1078.44 797.572 1078.44 799.229V802.748C1078.44 804.404 1077.85 805.854 1076.68 807.096C1075.51 808.269 1074.06 808.855 1072.33 808.855H1048.21C1047.66 808.855 1047.39 809.097 1047.39 809.58V822.727C1047.39 823.21 1047.66 823.451 1048.21 823.451H1067.67C1069.4 823.451 1070.85 824.072 1072.02 825.314C1073.2 826.488 1073.78 827.902 1073.78 829.559V833.285C1073.78 834.941 1073.2 836.391 1072.02 837.633C1070.85 838.806 1069.4 839.393 1067.67 839.393H1048.21C1047.66 839.393 1047.39 839.634 1047.39 840.117V855.334C1047.39 855.817 1047.66 856.059 1048.21 856.059H1073.57C1075.23 856.059 1076.65 856.68 1077.82 857.922C1079.06 859.095 1079.68 860.51 1079.68 862.166V865.893C1079.68 867.549 1079.06 868.998 1077.82 870.24C1076.65 871.413 1075.23 872 1073.57 872H1034.55Z" fill="black"/>
<path d="M836.14 680.598L828.838 640C827.774 634.085 820.811 631.412 816.062 635.095L787.439 657.292C782.811 660.881 783.482 668.064 788.695 670.734L824.619 689.134C830.512 692.153 837.312 687.114 836.14 680.598Z" fill="#F4B940" stroke="#211816" stroke-width="28"/>
<path d="M855 554C855 622.947 798.677 679 729 679C659.323 679 603 622.947 603 554C603 485.053 659.323 429 729 429C798.677 429 855 485.053 855 554Z" fill="#F4B940" stroke="#211816" stroke-width="26"/>
<path d="M820.409 671.259L774.5 653.5L810.5 623L820.409 671.259Z" fill="#F4B940"/>
<path d="M408.496 679.184L422.851 628.186C424.37 622.789 430.826 620.589 435.326 623.934L475.387 653.723C479.827 657.025 479.655 663.73 475.051 666.8L429.249 697.334C426.099 699.434 422.667 701.076 419.054 702.211L417.399 702.732C412.245 704.352 407 700.502 407 695.1V690.022C407 686.358 407.503 682.711 408.496 679.184Z" fill="#48A08F" stroke="#211816" stroke-width="25"/>
<path d="M724.5 512.5C724.5 606.973 648.132 683.5 554 683.5C459.868 683.5 383.5 606.973 383.5 512.5C383.5 418.027 459.868 341.5 554 341.5C648.132 341.5 724.5 418.027 724.5 512.5Z" fill="#48A08F" stroke="#211816" stroke-width="25"/>
<path d="M429.391 650.877L438.874 618.391L455.898 629.839L429.391 650.877Z" fill="#48A08F"/>
<path d="M453.6 666.061L464.909 628.305L482.839 640.53L453.6 666.061Z" fill="#48A08F"/>
<path d="M434.859 632L459.352 633.482L463 641.386L454 665L442.676 673L433.817 667.566L426.5 662L434.859 632Z" fill="#48A08F"/>
<path d="M453 665H454V665.5L453.5 666H453V665Z" fill="#48A08F"/>
<path d="M708.523 440.685L704.902 433.356L696.757 434.042C683.213 435.184 667.642 442.605 653.591 453.374C639.278 464.345 625.359 479.677 615.432 498.291C595.192 536.242 592.091 587.03 633.514 639.441L639.031 646.421L647.313 643.17C651.47 641.539 655.936 638.297 660.013 634.822C664.369 631.11 669.245 626.29 674.28 620.57C684.348 609.135 695.427 593.679 704.46 575.454C722.492 539.07 732.979 490.189 708.523 440.685Z" fill="#31721E" stroke="#211816" stroke-width="24"/>
</svg>
