<svg width="1240" height="1240" viewBox="0 0 1240 1240" fill="none" xmlns="http://www.w3.org/2000/svg">
<g clip-path="url(#clip0_1196_7291)">
<path d="M1240 0H0V1240H1240V0Z" fill="white"/>
<path d="M836.14 680.599L828.838 640.001C827.774 634.086 820.811 631.413 816.062 635.096L787.439 657.293C782.811 660.882 783.482 668.065 788.695 670.735L824.619 689.135C830.512 692.154 837.312 687.115 836.14 680.599Z" fill="#F4B940" stroke="#211816" stroke-width="28"/>
<path d="M855 554C855 622.947 798.677 679 729 679C659.323 679 603 622.947 603 554C603 485.053 659.323 429 729 429C798.677 429 855 485.053 855 554Z" fill="#F4B940" stroke="#211816" stroke-width="26"/>
<path d="M820.409 671.259L774.5 653.5L810.5 623L820.409 671.259Z" fill="#F4B940"/>
<path d="M408.496 679.185L422.851 628.186C424.37 622.789 430.826 620.59 435.326 623.935L475.387 653.724C479.827 657.026 479.655 663.731 475.051 666.801L429.249 697.335C426.099 699.435 422.667 701.077 419.054 702.212L417.399 702.733C412.245 704.353 407 700.503 407 695.101V690.022C407 686.358 407.503 682.712 408.496 679.185Z" fill="#48A08F" stroke="#211816" stroke-width="25"/>
<path d="M724.5 512.5C724.5 606.973 648.132 683.5 554 683.5C459.868 683.5 383.5 606.973 383.5 512.5C383.5 418.027 459.868 341.5 554 341.5C648.132 341.5 724.5 418.027 724.5 512.5Z" fill="#48A08F" stroke="#211816" stroke-width="25"/>
<path d="M429.391 650.877L438.874 618.391L455.898 629.839L429.391 650.877Z" fill="#48A08F"/>
<path d="M453.6 666.061L464.909 628.305L482.839 640.53L453.6 666.061Z" fill="#48A08F"/>
<path d="M434.859 632L459.352 633.482L463 641.386L454 665L442.676 673L433.817 667.566L426.5 662L434.859 632Z" fill="#48A08F"/>
<path d="M453 665H454V665.5L453.5 666H453V665Z" fill="#48A08F"/>
<path d="M708.523 440.684L704.902 433.355L696.757 434.041C683.213 435.183 667.642 442.604 653.591 453.373C639.278 464.344 625.359 479.676 615.432 498.29C595.192 536.241 592.091 587.029 633.514 639.44L639.031 646.421L647.313 643.169C651.47 641.538 655.936 638.297 660.013 634.822C664.369 631.11 669.245 626.289 674.28 620.569C684.348 609.134 695.427 593.678 704.46 575.453C722.492 539.069 732.979 490.188 708.523 440.684Z" fill="#31721E" stroke="#211816" stroke-width="24"/>
<path d="M139.565 872.328C137.771 872.328 136.183 871.776 134.803 870.672C133.492 869.499 132.664 868.049 132.319 866.324L120.104 799.453C120.035 799.108 120 798.763 120 798.418C120 797.314 120.414 796.279 121.243 795.312C122.209 794.07 123.485 793.449 125.073 793.449H132.319C134.044 793.449 135.562 794.036 136.873 795.209C138.185 796.313 138.978 797.762 139.254 799.557L143.395 829.369L146.5 854.213C146.569 854.351 146.673 854.42 146.811 854.42C146.949 854.42 147.018 854.351 147.018 854.213C148.398 846.346 149.951 838.064 151.676 829.369L158.405 799.453C158.75 797.728 159.612 796.313 160.993 795.209C162.442 794.036 164.064 793.449 165.858 793.449H169.481C171.275 793.449 172.862 794.001 174.243 795.105C175.692 796.21 176.589 797.659 176.934 799.453L183.87 829.369C184.491 832.405 185.284 836.788 186.25 842.516C187.286 848.174 188.01 852.039 188.424 854.109C188.424 854.316 188.493 854.42 188.631 854.42C188.838 854.42 188.942 854.316 188.942 854.109C189.356 850.935 189.908 846.518 190.598 840.859C191.288 835.131 191.737 831.301 191.944 829.369L196.188 799.557C196.395 797.762 197.154 796.313 198.465 795.209C199.845 794.036 201.398 793.449 203.123 793.449H208.92C210.508 793.449 211.819 794.07 212.854 795.312C213.682 796.279 214.096 797.348 214.096 798.521C214.096 798.797 214.062 799.108 213.993 799.453L202.399 866.324C202.123 868.049 201.295 869.499 199.914 870.672C198.603 871.776 197.051 872.328 195.256 872.328H183.662C181.868 872.328 180.281 871.776 178.901 870.672C177.521 869.499 176.658 868.049 176.313 866.324L170.412 837.961C169.17 831.957 168.17 825.953 167.411 819.949C167.342 819.742 167.204 819.639 166.996 819.639C166.858 819.639 166.789 819.742 166.789 819.949C165.271 829.266 164.236 835.269 163.684 837.961L158.094 866.324C157.68 868.049 156.783 869.499 155.403 870.672C154.092 871.776 152.539 872.328 150.745 872.328H139.565ZM282.367 862.701C275.742 870.085 266.977 873.777 256.074 873.777C245.239 873.777 236.509 870.085 229.884 862.701C223.259 855.317 219.947 845.241 219.947 832.474C219.947 819.777 223.225 809.874 229.781 802.766C236.406 795.588 245.17 792 256.074 792C267.046 792 275.811 795.588 282.367 802.766C288.992 809.874 292.304 819.777 292.304 832.474C292.304 845.241 288.992 855.317 282.367 862.701ZM243.859 850.797C246.826 855.282 250.898 857.525 256.074 857.525C261.319 857.525 265.425 855.282 268.392 850.797C271.429 846.242 272.947 840.135 272.947 832.474C272.947 824.883 271.429 818.948 268.392 814.67C265.425 810.322 261.319 808.148 256.074 808.148C250.898 808.148 246.826 810.322 243.859 814.67C240.891 818.948 239.408 824.883 239.408 832.474C239.408 840.204 240.891 846.311 243.859 850.797ZM324.448 808.459C323.896 808.459 323.62 808.7 323.62 809.183V828.851C323.62 829.335 323.896 829.576 324.448 829.576H332.108C336.663 829.576 340.079 828.644 342.356 826.781C344.702 824.849 345.876 822.019 345.876 818.293C345.876 814.704 344.737 812.185 342.46 810.736C340.251 809.218 336.801 808.459 332.108 808.459H324.448ZM365.544 867.049C365.82 867.601 365.958 868.187 365.958 868.808C365.958 869.361 365.785 869.947 365.44 870.568C364.75 871.741 363.749 872.328 362.438 872.328H353.432C351.569 872.328 349.809 871.845 348.153 870.879C346.566 869.913 345.324 868.601 344.426 866.945L333.143 845.207C332.867 844.793 332.488 844.586 332.005 844.586H324.448C323.896 844.586 323.62 844.827 323.62 845.31V866.221C323.62 867.877 323.033 869.326 321.86 870.568C320.687 871.741 319.238 872.328 317.512 872.328H310.784C309.128 872.328 307.678 871.741 306.436 870.568C305.263 869.326 304.676 867.877 304.676 866.221V799.557C304.676 797.9 305.263 796.486 306.436 795.312C307.678 794.07 309.128 793.449 310.784 793.449H333.661C354.226 793.449 364.508 801.73 364.508 818.293C364.508 828.92 360.195 836.408 351.569 840.756C351.155 840.963 351.051 841.273 351.258 841.687L365.544 867.049ZM383.609 872.328C381.953 872.328 380.504 871.741 379.261 870.568C378.088 869.326 377.502 867.877 377.502 866.221V799.557C377.502 797.9 378.088 796.486 379.261 795.312C380.504 794.07 381.953 793.449 383.609 793.449H390.338C392.063 793.449 393.512 794.07 394.685 795.312C395.858 796.486 396.445 797.9 396.445 799.557V824.504C396.445 824.573 396.48 824.607 396.549 824.607C396.687 824.607 396.79 824.573 396.859 824.504L415.595 798.418C417.942 795.105 421.151 793.449 425.222 793.449H433.814C435.056 793.449 435.988 794.001 436.609 795.105C436.816 795.588 436.92 796.071 436.92 796.555C436.92 797.176 436.713 797.762 436.299 798.314L416.527 824.4C416.251 824.814 416.251 825.263 416.527 825.746L441.267 867.049C441.612 867.67 441.785 868.291 441.785 868.912C441.785 869.464 441.612 870.016 441.267 870.568C440.646 871.741 439.646 872.328 438.265 872.328H429.777C427.845 872.328 426.051 871.879 424.394 870.982C422.807 870.016 421.53 868.705 420.564 867.049L405.451 840.652C405.382 840.514 405.244 840.445 405.037 840.445C404.83 840.445 404.692 840.514 404.623 840.652L396.963 851.004C396.618 851.418 396.445 851.901 396.445 852.453V866.221C396.445 867.877 395.858 869.326 394.685 870.568C393.512 871.741 392.063 872.328 390.338 872.328H383.609ZM500.64 872.328C498.983 872.328 497.534 871.741 496.292 870.568C495.119 869.326 494.532 867.877 494.532 866.221V799.557C494.532 797.9 495.119 796.486 496.292 795.312C497.534 794.07 498.983 793.449 500.64 793.449H538.423C540.148 793.449 541.597 794.07 542.771 795.312C543.944 796.486 544.53 797.9 544.53 799.557V803.076C544.53 804.732 543.944 806.182 542.771 807.424C541.597 808.597 540.148 809.183 538.423 809.183H514.304C513.752 809.183 513.476 809.425 513.476 809.908V823.055C513.476 823.538 513.752 823.779 514.304 823.779H533.765C535.49 823.779 536.939 824.4 538.112 825.642C539.286 826.816 539.872 828.23 539.872 829.887V833.613C539.872 835.269 539.286 836.719 538.112 837.961C536.939 839.134 535.49 839.721 533.765 839.721H514.304C513.752 839.721 513.476 839.962 513.476 840.445V855.662C513.476 856.145 513.752 856.387 514.304 856.387H539.665C541.321 856.387 542.736 857.008 543.909 858.25C545.151 859.423 545.773 860.838 545.773 862.494V866.221C545.773 867.877 545.151 869.326 543.909 870.568C542.736 871.741 541.321 872.328 539.665 872.328H500.64ZM557.42 872.328C556.04 872.328 555.005 871.741 554.315 870.568C553.97 869.947 553.797 869.326 553.797 868.705C553.797 868.084 553.935 867.497 554.211 866.945L572.74 832.371C572.947 831.957 572.947 831.508 572.74 831.025L555.453 798.832C555.177 798.28 555.039 797.693 555.039 797.072C555.039 796.451 555.212 795.83 555.557 795.209C556.316 794.036 557.386 793.449 558.766 793.449H567.565C569.428 793.449 571.153 793.967 572.74 795.002C574.328 795.968 575.501 797.314 576.26 799.039L580.09 807.527C581.125 809.805 582.989 814.049 585.68 820.26C585.749 820.398 585.852 820.467 585.99 820.467C586.128 820.467 586.232 820.398 586.301 820.26C587.75 816.257 589.406 812.013 591.27 807.527L594.686 799.142C595.376 797.417 596.48 796.037 597.998 795.002C599.586 793.967 601.311 793.449 603.174 793.449H610.938C612.318 793.449 613.388 794.036 614.147 795.209C614.492 795.83 614.664 796.486 614.664 797.176C614.664 797.728 614.526 798.28 614.25 798.832L597.067 831.853C596.86 832.336 596.86 832.82 597.067 833.303L615.492 866.945C615.837 867.566 616.01 868.153 616.01 868.705C616.01 869.326 615.837 869.947 615.492 870.568C614.733 871.741 613.664 872.328 612.283 872.328H603.485C601.621 872.328 599.896 871.845 598.309 870.879C596.722 869.844 595.514 868.498 594.686 866.842L590.028 857.008C588.716 854.109 586.819 849.762 584.334 843.965C584.265 843.896 584.162 843.861 584.024 843.861C583.886 843.861 583.782 843.896 583.713 843.965C581.85 848.726 580.056 853.074 578.33 857.008L574.086 866.738C573.327 868.463 572.154 869.844 570.567 870.879C569.048 871.845 567.358 872.328 565.494 872.328H557.42ZM656.849 873.777C651.742 873.777 646.98 872.915 642.564 871.189C638.147 869.464 634.214 866.945 630.763 863.633C627.382 860.32 624.69 856.076 622.689 850.9C620.757 845.655 619.79 839.79 619.79 833.303C619.79 826.954 620.791 821.157 622.792 815.912C624.863 810.598 627.623 806.216 631.074 802.766C634.593 799.315 638.596 796.658 643.081 794.795C647.636 792.932 652.432 792 657.47 792C664.44 792 670.858 794.105 676.724 798.314C678.242 799.349 679.001 800.868 679.001 802.869C679.001 804.387 678.518 805.767 677.552 807.01L675.275 809.598C674.309 810.84 672.963 811.564 671.238 811.771C670.962 811.771 670.72 811.771 670.513 811.771C669.064 811.771 667.753 811.392 666.579 810.633C663.819 808.976 660.886 808.148 657.781 808.148C652.536 808.148 648.119 810.391 644.531 814.877C641.011 819.293 639.251 825.228 639.251 832.682C639.251 840.48 640.873 846.587 644.117 851.004C647.429 855.351 651.915 857.525 657.574 857.525C661.231 857.525 664.716 856.421 668.029 854.213C669.202 853.385 670.548 852.971 672.066 852.971C672.204 852.971 672.342 852.971 672.48 852.971C674.136 853.109 675.482 853.764 676.517 854.937L678.691 857.525C679.726 858.767 680.244 860.217 680.244 861.873C680.244 863.736 679.553 865.254 678.173 866.428C672.169 871.327 665.061 873.777 656.849 873.777ZM698.102 872.328C696.446 872.328 694.997 871.741 693.754 870.568C692.581 869.326 691.995 867.877 691.995 866.221V799.557C691.995 797.9 692.581 796.486 693.754 795.312C694.997 794.07 696.446 793.449 698.102 793.449H704.831C706.556 793.449 708.005 794.07 709.178 795.312C710.351 796.486 710.938 797.9 710.938 799.557V822.64C710.938 823.193 711.214 823.469 711.766 823.469H736.196C736.679 823.469 736.92 823.193 736.92 822.64V799.557C736.92 797.9 737.507 796.486 738.68 795.312C739.922 794.07 741.372 793.449 743.028 793.449H749.549C751.275 793.449 752.724 794.07 753.897 795.312C755.07 796.486 755.657 797.9 755.657 799.557V866.221C755.657 867.877 755.07 869.326 753.897 870.568C752.724 871.741 751.275 872.328 749.549 872.328H743.028C741.372 872.328 739.922 871.741 738.68 870.568C737.507 869.326 736.92 867.877 736.92 866.221V840.652C736.92 840.169 736.679 839.928 736.196 839.928H711.766C711.214 839.928 710.938 840.169 710.938 840.652V866.221C710.938 867.877 710.351 869.326 709.178 870.568C708.005 871.741 706.556 872.328 704.831 872.328H698.102ZM789.56 838.789C789.491 838.996 789.526 839.203 789.664 839.41C789.802 839.548 789.974 839.617 790.181 839.617H804.673C804.88 839.617 805.053 839.548 805.191 839.41C805.329 839.203 805.364 838.996 805.295 838.789L803.742 832.889C803.052 830.128 802.017 825.884 800.636 820.156C799.256 814.359 798.255 810.219 797.634 807.734C797.565 807.596 797.462 807.527 797.324 807.527C797.186 807.527 797.117 807.596 797.117 807.734C794.356 819.466 792.355 827.851 791.113 832.889L789.56 838.789ZM819.787 872.328C817.992 872.328 816.371 871.776 814.921 870.672C813.541 869.568 812.61 868.153 812.127 866.428L809.332 854.937C809.194 854.454 808.849 854.213 808.296 854.213H786.558C786.006 854.213 785.696 854.454 785.627 854.937L782.728 866.428C782.245 868.153 781.279 869.568 779.83 870.672C778.449 871.776 776.862 872.328 775.068 872.328H768.029C766.511 872.328 765.303 871.707 764.406 870.465C763.785 869.706 763.474 868.843 763.474 867.877C763.474 867.463 763.543 867.014 763.681 866.531L784.591 799.246C785.143 797.521 786.144 796.14 787.593 795.105C789.043 794.001 790.699 793.449 792.562 793.449H803.017C804.811 793.449 806.433 794.001 807.882 795.105C809.332 796.14 810.332 797.521 810.884 799.246L831.795 866.531C831.933 867.014 832.002 867.463 832.002 867.877C832.002 868.843 831.691 869.706 831.07 870.465C830.173 871.707 828.965 872.328 827.447 872.328H819.787ZM845.719 872.328C844.063 872.328 842.614 871.741 841.372 870.568C840.199 869.326 839.612 867.877 839.612 866.221V799.557C839.612 797.9 840.199 796.486 841.372 795.312C842.614 794.07 844.063 793.449 845.719 793.449H852.758C854.691 793.449 856.451 793.932 858.038 794.898C859.625 795.864 860.867 797.176 861.764 798.832L878.534 831.232L886.194 848.416C886.263 848.623 886.367 848.726 886.505 848.726C886.712 848.726 886.781 848.623 886.712 848.416C885.055 835.235 884.227 825.608 884.227 819.535V799.557C884.227 797.9 884.814 796.486 885.987 795.312C887.229 794.07 888.678 793.449 890.335 793.449H896.132C897.857 793.449 899.306 794.07 900.479 795.312C901.652 796.486 902.239 797.9 902.239 799.557V866.221C902.239 867.877 901.652 869.326 900.479 870.568C899.306 871.741 897.857 872.328 896.132 872.328H889.092C887.229 872.328 885.469 871.845 883.813 870.879C882.226 869.913 881.018 868.567 880.19 866.842L863.421 834.234L855.864 817.258C855.795 817.051 855.657 816.947 855.45 816.947C855.312 816.947 855.243 817.051 855.243 817.258C855.312 818.362 855.588 821.191 856.071 825.746C856.623 830.301 857.003 834.131 857.21 837.236C857.486 840.342 857.624 843.309 857.624 846.139V866.221C857.624 867.877 857.037 869.326 855.864 870.568C854.691 871.741 853.242 872.328 851.516 872.328H845.719ZM953.947 873.777C948.426 873.777 943.285 872.915 938.523 871.189C933.831 869.464 929.69 866.945 926.101 863.633C922.582 860.32 919.821 856.076 917.82 850.9C915.819 845.724 914.818 839.859 914.818 833.303C914.818 826.885 915.853 821.053 917.924 815.808C919.994 810.564 922.789 806.216 926.308 802.766C929.897 799.315 934.003 796.658 938.627 794.795C943.319 792.932 948.323 792 953.637 792C961.366 792 968.236 794.105 974.236 798.314C975.756 799.418 976.516 800.937 976.516 802.869C976.516 804.387 975.996 805.733 974.956 806.906L972.686 809.701C971.646 810.874 970.306 811.564 968.646 811.771C968.366 811.771 968.096 811.771 967.816 811.771C966.436 811.771 965.161 811.392 963.988 810.633C961.09 808.976 957.846 808.148 954.258 808.148C948.323 808.148 943.492 810.357 939.765 814.773C936.108 819.19 934.279 825.159 934.279 832.682C934.279 840.687 936.073 846.829 939.662 851.107C943.25 855.386 948.668 857.525 955.914 857.525C958.674 857.525 960.952 856.973 962.746 855.869C963.16 855.662 963.367 855.282 963.367 854.73V843.551C963.367 842.999 963.125 842.723 962.642 842.723H956.949C955.293 842.723 953.844 842.136 952.601 840.963C951.428 839.79 950.842 838.34 950.842 836.615V833.406C950.842 831.681 951.428 830.232 952.601 829.058C953.844 827.885 955.293 827.299 956.949 827.299H974.136C975.786 827.299 977.206 827.885 978.376 829.058C979.616 830.232 980.236 831.681 980.236 833.406V858.043C980.236 862.598 978.616 865.876 975.376 867.877C969.026 871.81 961.883 873.777 953.947 873.777ZM1000.07 872.328C998.406 872.328 996.956 871.741 995.716 870.568C994.546 869.326 993.956 867.877 993.956 866.221V799.557C993.956 797.9 994.546 796.486 995.716 795.312C996.956 794.07 998.406 793.449 1000.07 793.449H1037.85C1039.58 793.449 1041.03 794.07 1042.2 795.312C1043.37 796.486 1043.96 797.9 1043.96 799.557V803.076C1043.96 804.732 1043.37 806.182 1042.2 807.424C1041.03 808.597 1039.58 809.183 1037.85 809.183H1013.73C1013.18 809.183 1012.91 809.425 1012.91 809.908V823.055C1012.91 823.538 1013.18 823.779 1013.73 823.779H1033.19C1034.92 823.779 1036.37 824.4 1037.54 825.642C1038.72 826.816 1039.3 828.23 1039.3 829.887V833.613C1039.3 835.269 1038.72 836.719 1037.54 837.961C1036.37 839.134 1034.92 839.721 1033.19 839.721H1013.73C1013.18 839.721 1012.91 839.962 1012.91 840.445V855.662C1012.91 856.145 1013.18 856.387 1013.73 856.387H1039.09C1040.75 856.387 1042.17 857.008 1043.34 858.25C1044.58 859.423 1045.2 860.838 1045.2 862.494V866.221C1045.2 867.877 1044.58 869.326 1043.34 870.568C1042.17 871.741 1040.75 872.328 1039.09 872.328H1000.07Z" fill="black"/>
<path d="M1074.15 808.528C1073.6 808.528 1073.32 808.772 1073.32 809.26V829.113C1073.32 829.601 1073.6 829.845 1074.15 829.845H1081.89C1086.48 829.845 1089.93 828.904 1092.23 827.023C1094.6 825.073 1095.78 822.217 1095.78 818.455C1095.78 814.833 1094.63 812.29 1092.33 810.827C1090.11 809.295 1086.62 808.528 1081.89 808.528H1074.15ZM1115.64 867.671C1115.92 868.228 1116.05 868.82 1116.05 869.447C1116.05 870.005 1115.88 870.597 1115.53 871.224C1114.84 872.408 1113.83 873 1112.5 873H1103.41C1101.53 873 1099.75 872.512 1098.08 871.537C1096.48 870.562 1095.23 869.238 1094.32 867.566L1082.93 845.623C1082.65 845.205 1082.27 844.996 1081.78 844.996H1074.15C1073.6 844.996 1073.32 845.24 1073.32 845.728V866.835C1073.32 868.507 1072.73 869.97 1071.54 871.224C1070.36 872.408 1068.89 873 1067.15 873H1060.36C1058.69 873 1057.23 872.408 1055.97 871.224C1054.79 869.97 1054.2 868.507 1054.2 866.835V799.542C1054.2 797.87 1054.79 796.442 1055.97 795.258C1057.23 794.004 1058.69 793.377 1060.36 793.377H1083.45C1104.21 793.377 1114.59 801.736 1114.59 818.455C1114.59 829.183 1110.24 836.741 1101.53 841.13C1101.11 841.339 1101.01 841.652 1101.22 842.07L1115.64 867.671Z" fill="black"/>
</g>
<defs>
<clipPath id="clip0_1196_7291">
<rect width="1240" height="1240" fill="white"/>
</clipPath>
</defs>
</svg>
